:SAMPLES-PER-SECOND 30
:FULLY-SPECIFIED
:DEGREES
367
root  42.8044 37.881 1.38632 30.0269 80.5172 35.4578
RightUpLeg  -16.3825 -10.945 0.660368
RightLeg  4.18837 -42.0303 7.89175
RightFoot  -3.92627 0.701175 -11.0992
RightToes  0.00048216 0.542163 -0.142577
Spine  4.73998 -3.79736 -6.91303
Spine1  8.67861 -6.78334 9.10911
HEad  -5.96474 -1.04528 1.73852
LeftShoulder1  7.87123 -12.0969 -43.9151
LeftArm  -12.4847 11.0777 -24.5487
LeftForeArm  44.0178 -49.3904 -9.77482
LeftHand  -0.25398 0.0180481 5.50724
RightShoulder  3.46362 6.30643 29.3283
RightArm  4.14348 -30.5775 39.7872
RightForeArm  1.01091 24.6966 5.22764
RightHand  -1.17036 3.46159 -15.5693
LeftUpLeg  20.4183 25.8843 -1.45248
LeftLeg  19.3796 -3.16071 -1.44494
LeftFoot  -18.9381 -0.189233 -4.59615
LeftToes  1.06246e-005 4.65856e-005 -8.18502e-006
368
root  44.5084 37.746 1.31069 11.3988 78.3118 16.5758
RightUpLeg  -20.0635 -19.8549 7.28109
RightLeg  15.2393 -28.6004 -0.0383884
RightFoot  -4.52237 1.1292 -19.2182
RightToes  0.00048216 0.542163 -0.142577
Spine  4.65152 -3.81062 -2.66059
Spine1  7.89603 -6.39746 8.46375
HEad  -5.83722 0.409531 0.537354
LeftShoulder1  8.02113 -12.1123 -44.7471
LeftArm  -10.9498 11.8844 -25.2949
LeftForeArm  43.2451 -46.9192 -8.88877
LeftHand  -0.25398 0.0180481 5.50724
RightShoulder  3.48163 6.36493 29.2999
RightArm  3.58045 -31.3789 39.5009
RightForeArm  0.113498 23.5126 5.07058
RightHand  -1.30773 4.31341 -15.8972
LeftUpLeg  19.3127 28.9192 3.4812
LeftLeg  28.2114 -6.239 -3.16849
LeftFoot  -13.9837 -0.123618 -10.3476
LeftToes  1.06246e-005 4.65856e-005 -8.18502e-006
369
root  46.0008 37.5892 1.31069 -0.927462 75.0168 3.89529
RightUpLeg  -23.0117 -27.7878 14.5317
RightLeg  21.081 -15.4001 -4.8242
RightFoot  -5.38244 1.05617 -20.6476
RightToes  0.00048216 0.542163 -0.142577
Spine  5.54201 -3.87822 0.319089
Spine1  6.77283 -6.22155 8.93138
HEad  -5.57052 2.09747 -0.449881
LeftShoulder1  7.98622 -12.0758 -44.6519
LeftArm  -9.74949 12.761 -27.0645
LeftForeArm  42.6346 -44.3992 -8.05384
LeftHand  -0.25398 0.0180481 5.50724
RightShoulder  3.59354 6.65876 29.384
RightArm  2.59964 -31.0131 39.5216
RightForeArm  -0.361735 21.3095 5.09237
RightHand  -1.32235 4.46901 -15.8251
LeftUpLeg  13.9142 28.1246 6.34576
LeftLeg  40.5803 -6.47956 -5.54304
LeftFoot  -2.90021 1.11981 -14.9154
LeftToes  1.06246e-005 4.65856e-005 -8.18502e-006
370
root  47.2125 37.3466 1.34616 -7.79277 72.0787 -3.664
RightUpLeg  -23.688 -27.1318 17.2562
RightLeg  25.315 -13.2024 -6.91679
RightFoot  -7.68581 0.562925 -19.0129
RightToes  0.00048216 0.542163 -0.142577
Spine  6.70672 -4.46855 1.60889
Spine1  6.11545 -6.82385 10.8895
HEad  -5.52775 3.71487 -0.672679
LeftShoulder1  7.94373 -12.1661 -44.1359
LeftArm  -8.89791 13.4471 -28.9029
LeftForeArm  42.7317 -42.7426 -7.51919
LeftHand  -0.25398 0.0180481 5.50724
RightShoulder  3.65655 6.8203 29.4427
RightArm  0.895193 -29.8343 40.0388
RightForeArm  -0.191029 19.4788 5.47405
RightHand  -1.25083 3.97674 -15.7465
LeftUpLeg  5.38233 24.2401 6.99832
LeftLeg  53.0737 -5.87466 -7.88382
LeftFoot  8.89593 2.80133 -16.0725
LeftToes  1.06246e-005 4.65856e-005 -8.18502e-006
371
root  48.3438 37.1963 1.35754 -10.7742 68.654 -7.31369
RightUpLeg  -22.9976 -25.7346 18.1318
RightLeg  28.1167 -11.8351 -6.96065
RightFoot  -10.3113 0.0931366 -18.0473
RightToes  0.00048216 0.542163 -0.142577
Spine  7.52474 -4.92719 2.10629
Spine1  6.0182 -7.42253 12.8837
HEad  -5.5945 4.8845 -0.0349782
LeftShoulder1  8.06894 -12.3862 -44.2137
LeftArm  -7.45713 13.3599 -29.7107
LeftForeArm  43.2109 -41.5708 -7.13558
LeftHand  -0.25398 0.0180481 5.50724
RightShoulder  3.64164 6.72594 29.6274
RightArm  0.0907395 -28.684 40.7877
RightForeArm  -0.745504 19.0276 5.62849
RightHand  -1.31575 4.04605 -16.404
LeftUpLeg  -2.60878 19.8078 6.81613
LeftLeg  62.5599 -4.35411 -8.36404
LeftFoot  13.509 3.01957 -14.0005
LeftToes  1.06246e-005 4.65856e-005 -8.18502e-006
372
root  49.6253 37.3956 1.37163 -9.6221 63.2456 -6.41124
RightUpLeg  -20.4296 -22.9065 17.1472
RightLeg  28.6156 -9.47854 -5.78647
RightFoot  -11.3816 -0.0832329 -17.276
RightToes  0.00048216 0.542163 -0.142577
Spine  7.69242 -4.52332 2.04002
Spine1  6.05174 -7.03571 13.3585
HEad  -5.11235 5.73156 0.910042
LeftShoulder1  8.21636 -12.4683 -44.8192
LeftArm  -5.25093 12.7103 -29.6306
LeftForeArm  43.2389 -40.3066 -6.76412
LeftHand  -0.25398 0.0180481 5.50724
RightShoulder  3.66226 6.66813 30.0378
RightArm  0.450026 -27.9602 41.4519
RightForeArm  -1.22717 19.4119 5.55614
RightHand  -1.53003 4.93098 -17.4507
LeftUpLeg  -7.93398 17.3869 6.36747
LeftLeg  67.3166 -1.65528 -3.64184
LeftFoot  11.6008 1.95571 -9.90457
LeftToes  1.06246e-005 4.65856e-005 -8.18502e-006
373
root  50.9552 37.7849 1.41426 -6.99303 56.0381 -3.79647
RightUpLeg  -16.9995 -17.8486 14.9819
RightLeg  27.8387 -7.46254 -4.50704
RightFoot  -11.3452 -0.0766142 -15.6808
RightToes  0.00048216 0.542163 -0.142577
Spine  7.47007 -3.68853 1.75934
Spine1  5.92908 -5.97938 12.3902
HEad  -3.7449 6.79555 1.53842
LeftShoulder1  8.17327 -12.2843 -45.1135
LeftArm  -3.64504 12.5884 -29.5321
LeftForeArm  42.5816 -39.2378 -6.49906
LeftHand  -0.25398 0.0180481 5.50724
RightShoulder  3.77183 6.85134 30.4664
RightArm  1.52949 -27.5018 42.0788
RightForeArm  -0.720546 19.8577 5.43594
RightHand  -1.60451 5.22163 -17.7912
LeftUpLeg  -11.481 16.1952 5.56539
LeftLeg  68.1733 1.53366 4.91409
LeftFoot  7.67713 0.814682 -5.14218
LeftToes  1.06246e-005 4.65856e-005 -8.18502e-006
374
root  52.2363 38.1529 1.4549 -4.86379 48.3662 -1.79638
RightUpLeg  -14.0992 -12.9623 12.8308
RightLeg  26.8549 -5.11487 -3.04397
RightFoot  -11.4862 -0.0953201 -14.3329
RightToes  0.00048216 0.542163 -0.142577
Spine  7.21569 -3.20378 1.58047
Spine1  5.5637 -5.19657 11.1031
HEad  -2.13867 8.30698 1.50892
LeftShoulder1  8.01783 -12.0069 -45.0438
LeftArm  -3.71595 13.4747 -29.6212
LeftForeArm  41.6273 -38.7058 -6.40645
LeftHand  -0.25398 0.0180481 5.50724
RightShoulder  3.88327 7.09725 30.6767
RightArm  3.16753 -27.0287 42.683
RightForeArm  -0.137682 20.3294 5.31902
RightHand  -1.42577 4.28413 -17.3266
LeftUpLeg  -14.4613 14.1732 4.74178
LeftLeg  66.7153 4.45224 11.9227
LeftFoot  4.21795 0.0932727 -0.872964
LeftToes  1.06246e-005 4.65856e-005 -8.18502e-006
